HIERARCHY
ROOT Hips
{
	OFFSET 0.000000  0.463670  0.080341
	CHANNELS 6 Xposition Yposition Zposition Zrotation Yrotation Xrotation 
	JOINT LHipJoint
	{
		OFFSET 0 0 0
		CHANNELS 3 Zrotation Yrotation Xrotation
		JOINT LeftUpLeg
		{
			OFFSET 0.949434 -0.248378 0.086503
			CHANNELS 3 Zrotation Yrotation Xrotation
			JOINT LeftLeg
			{
				OFFSET -0.076513 -3.879421 -0.177038
				CHANNELS 3 Zrotation Yrotation Xrotation
				JOINT LeftFoot
				{
					OFFSET -0.188964 -3.680973 -0.122632
					CHANNELS 3 Zrotation Yrotation Xrotation
					JOINT LeftToeBase
					{
						OFFSET 0.055451 -0.524480 1.120382
						CHANNELS 3 Zrotation Yrotation Xrotation
						End Site
						{
							OFFSET 0.007944 -0.006006 0.139660
						}
					}
				}
			}
		}
	}
	JOINT RHipJoint
	{
		OFFSET 0 0 0
		CHANNELS 3 Zrotation Yrotation Xrotation
		JOINT RightUpLeg
		{
			OFFSET -0.949434 -0.248378 0.086503
			CHANNELS 3 Zrotation Yrotation Xrotation
			JOINT RightLeg
			{
				OFFSET 0.076513 -3.879421 -0.177038
				CHANNELS 3 Zrotation Yrotation Xrotation
				JOINT RightFoot
				{
					OFFSET 0.188964 -3.680973 -0.122632
					CHANNELS 3 Zrotation Yrotation Xrotation
					JOINT RightToeBase
					{
						OFFSET -0.055451 -0.524480 1.120382
						CHANNELS 3 Zrotation Yrotation Xrotation
						End Site
						{
							OFFSET -0.007944 -0.006006 0.139660
						}
					}
				}
			}
		}
	}
	JOINT LowerBack
	{
		OFFSET 0 0 0
		CHANNELS 3 Zrotation Yrotation Xrotation
		JOINT Spine
		{
			OFFSET 0.000000 0.677144 0.028277
			CHANNELS 3 Zrotation Yrotation Xrotation
			JOINT Spine1
			{
				OFFSET 0.000000 2.156116 -0.508617
				CHANNELS 3 Zrotation Yrotation Xrotation
				JOINT Neck
				{
					OFFSET 0 0 0
					CHANNELS 3 Zrotation Yrotation Xrotation
					JOINT Neck1
					{
						OFFSET 0.000000 1.781871 0.216275
						CHANNELS 3 Zrotation Yrotation Xrotation
						JOINT Head
						{
							OFFSET 0.000000 1.015906 -0.026879
							CHANNELS 3 Zrotation Yrotation Xrotation
							End Site
							{
								OFFSET 0.000000 0.339197 0.983632
							}
						}
					}
				}
				JOINT LeftShoulder
				{
					OFFSET 0 0 0
					CHANNELS 3 Zrotation Yrotation Xrotation
					JOINT LeftArm
					{
						OFFSET 1.565866 1.184736 0.289545
						CHANNELS 3 Zrotation Yrotation Xrotation
						JOINT LeftForeArm
						{
							OFFSET 1.930940 -0.176441 -0.109244
							CHANNELS 3 Zrotation Yrotation Xrotation
							JOINT LeftHand
							{
								OFFSET 2.263412 -0.058986 0.122483
								CHANNELS 3 Zrotation Yrotation Xrotation
								JOINT LeftFingerBase
								{
									OFFSET 0 0 0
									CHANNELS 3 Zrotation Yrotation Xrotation
									JOINT LeftHandIndex1
									{
										OFFSET 0.944218 0.017559 0.358417
										CHANNELS 3 Zrotation Yrotation Xrotation
										End Site
										{
											OFFSET 0.237801 -0.022714 0.035813
										}
									}
								}
								JOINT LThumb
								{
									OFFSET 0 0 0
									CHANNELS 3 Zrotation Yrotation Xrotation
									End Site
									{
										OFFSET 0.234930 -0.092931 0.244282
									}
								}
							}
						}
					}
				}
				JOINT RightShoulder
				{
					OFFSET 0 0 0
					CHANNELS 3 Zrotation Yrotation Xrotation
					JOINT RightArm
					{
						OFFSET -1.565866 1.184736 0.289545
						CHANNELS 3 Zrotation Yrotation Xrotation
						JOINT RightForeArm
						{
							OFFSET -1.930940 -0.176441 -0.109244
							CHANNELS 3 Zrotation Yrotation Xrotation
							JOINT RightHand
							{
								OFFSET -2.263412 -0.058986 0.122483
								CHANNELS 3 Zrotation Yrotation Xrotation
								JOINT RightFingerBase
								{
									OFFSET 0 0 0
									CHANNELS 3 Zrotation Yrotation Xrotation
									JOINT RightHandIndex1
									{
										OFFSET -0.944218 0.017559 0.358417
										CHANNELS 3 Zrotation Yrotation Xrotation
										End Site
										{
											OFFSET -0.237801 -0.022714 0.035813
										}
									}
								}
								JOINT RThumb
								{
									OFFSET 0 0 0
									CHANNELS 3 Zrotation Yrotation Xrotation
									End Site
									{
										OFFSET -0.234930 -0.092931 0.244282
									}
								}
							}
						}
					}
				}
			}
		}
	}
}
MOTION
Frames: 8
Frame Time: .0083333
4.101789 8.505052 22.281474 0.000000 0.000000 0.000000 0.000000 0.000000 0.000000 0.000000 0.000000 0.000000 0.000000 0.000000 0.000000 0.000000 0.000000 0.000000 0.000000 0.000000 0.000000 0.000000 0.000000 0.000000 0.000000 0.000000 0.000000 0.000000 0.000000 0.000000 0.000000 0.000000 0.000000 0.000000 0.000000 0.000000 0.000000 0.000000 0.000000 0.000000 0.000000 0.000000 0.000000 0.000000 0.000000 0.000000 0.000000 0.000000 0.000000 0.000000 0.000000 0.000000 0.000000 0.000000 0.000000 0.000000 0.000000 0.000000 0.000000 0.000000 0.000000 0.000000 0.000000 0.000000 0.000000 0.000000 0.000000 0.000000 0.000000 0.000000 0.000000 0.000000 0.000000 0.000000 0.000000 0.000000 0.000000 0.000000 0.000000 0.000000 0.000000 0.000000 0.000000 0.000000 0.000000 0.000000 0.000000 0.000000 0.000000 0.000000 0.000000 0.000000 0.000000 0.000000 0.000000 0.000000
4.101789 8.505052 22.281474 -173.052994 19.477200 -152.324997 0.000000 0.000000 0.000000 16.016899 -4.373700 -73.552200 4.234000 12.465500 37.399200 -0.001000 -1.871400 -1.214800 8.058600 16.162201 52.773399 0.000000 0.000000 0.000000 6.144699 11.804000 -27.115299 -5.625700 -14.055500 43.460400 11.450900 -52.261002 -3.618000 -12.553900 18.615101 -67.734200 -6.419100 3.078400 18.616301 -1.349000 4.960300 11.220000 1.349300 2.948000 1.416900 -8.711000 -8.419000 23.586800 -2.350500 -11.871500 -26.836000 1.216100 -5.319100 -13.807000 0.000000 -0.000000 0.000000 51.070999 -36.655499 -55.011501 18.583200 -28.897499 -4.827800 -0.000000 0.000000 -60.974499 26.254299 0.420200 0.207300 -7.125000 0.000000 -0.000000 -0.246800 30.448299 0.087700 0.000000 -0.000000 0.000000 -100.269897 47.639702 -142.787796 -8.484100 14.334500 -1.068800 0.000000 0.000000 16.140400 -15.112100 -37.240601 9.281400 7.125000 -0.000000 -0.000000 25.564199 -66.511299 -13.632800
4.149632 8.427632 21.771580 -171.591995 16.859100 -148.028000 0.000000 0.000000 0.000000 17.800800 -5.532900 -80.034103 6.254300 14.670400 45.994099 -0.020000 4.619400 2.449300 4.939600 13.315400 40.561001 0.000000 0.000000 0.000000 7.530500 11.960700 -25.458799 -4.927500 -13.301700 40.508400 9.509900 -46.048500 -20.366899 -9.726400 17.253099 -58.569801 -4.925800 0.624900 20.676300 -2.516000 1.959100 11.352500 -0.260100 1.617900 0.788400 -8.611200 -9.115900 24.153500 -1.844400 -12.876000 -27.588501 1.454400 -5.790100 -14.107700 -0.000000 0.000000 0.000000 48.629799 -30.811001 -44.736801 22.962200 -34.047401 -7.117100 -0.000000 0.000000 -79.016296 35.830399 -7.174600 -5.152800 -7.125000 0.000000 -0.000000 6.536900 21.178400 -3.757900 -0.000000 0.000000 0.000000 -103.657097 45.540401 -152.290802 -7.848100 13.306300 -0.916900 0.000000 0.000000 21.260300 -13.891400 -35.096600 8.093000 7.125000 -0.000000 -0.000000 24.424500 -64.274200 -11.738400
4.188895 8.385316 21.234105 -170.201004 15.297400 -144.542999 0.000000 0.000000 0.000000 20.675200 -6.146700 -84.101097 8.032700 16.143299 52.680500 -0.045600 -4.009500 0.057100 4.535100 12.840300 38.773399 0.000000 0.000000 0.000000 8.520100 9.159600 -21.822300 -3.421800 -11.348500 33.464298 13.024200 -52.417301 -12.789500 -12.967100 18.770300 -69.023399 -6.361300 1.100200 23.200001 -2.092400 2.006900 10.627700 0.875700 1.588100 -1.277600 -8.612900 -9.677900 24.305000 -1.269000 -13.636000 -28.161200 1.693700 -6.151600 -14.263000 0.000000 0.000000 0.000000 51.428902 -35.302101 -53.183899 21.526199 -32.437401 -6.329800 -0.000000 0.000000 -70.168999 33.195000 -5.238400 -3.418400 -7.125000 0.000000 -0.000000 4.824900 23.731100 -2.483600 0.000000 0.000000 0.000000 -101.929100 47.075500 -152.226196 -8.106700 13.725700 -0.977300 0.000000 0.000000 22.441401 -12.805000 -35.798801 7.573000 7.125000 -0.000000 -0.000000 26.385799 -64.597702 -12.940500
4.217158 8.349210 20.663263 -168.095993 14.575600 -142.492004 0.000000 0.000000 0.000000 23.199800 -5.667700 -84.878601 8.937300 16.767200 55.873100 -0.188800 -7.929000 0.790800 8.396900 16.403601 53.980099 0.000000 0.000000 0.000000 8.810499 1.540100 -17.108900 -1.975700 -8.815400 25.219500 4.980000 -35.971901 -17.629299 -0.061300 -1.597800 4.395500 -7.440600 1.763900 26.877899 -1.985800 2.488300 10.710700 1.329100 1.890000 -2.978700 -10.475100 -10.177300 20.097000 -0.164000 -13.750600 -26.910700 1.973800 -6.276000 -12.857600 -0.000000 0.000000 0.000000 55.236099 -36.394199 -55.495300 20.304899 -31.007999 -5.687600 -0.000000 0.000000 -68.336098 33.435699 -5.814900 -3.827200 -7.125000 0.000000 -0.000000 4.949300 23.028700 -2.628300 -0.000000 0.000000 0.000000 -100.552498 47.313499 -154.276398 -7.987900 13.533300 -0.949300 0.000000 0.000000 24.061800 -12.954500 -34.805901 7.480300 7.125000 -0.000000 -0.000000 25.134701 -63.764099 -11.802400
4.230842 8.403526 20.047790 -165.121002 14.123800 -136.891006 0.000000 0.000000 0.000000 26.678501 -4.535500 -86.214897 9.184000 16.924700 56.724201 -0.138700 -8.661300 -2.833100 7.898200 16.043900 52.195301 0.000000 0.000000 0.000000 7.882900 -1.970200 -15.234500 -1.199600 -6.949400 19.565399 1.491600 -24.939100 5.180300 -6.979700 -15.314800 48.797401 -8.218400 2.638900 28.490299 -2.086100 3.058900 10.051200 1.383600 2.143100 -4.530200 -10.357100 -10.347300 18.785700 0.939400 -13.793600 -26.851500 2.208200 -6.359500 -12.533900 -0.000000 0.000000 0.000000 56.855400 -36.004501 -55.645401 20.565100 -31.317200 -5.822200 -0.000000 0.000000 -67.595398 34.658298 -7.056800 -4.854800 -7.125000 0.000000 -0.000000 5.710200 21.438400 -3.243900 -0.000000 0.000000 0.000000 -99.418800 47.049599 -157.561096 -7.915200 13.415400 -0.932400 0.000000 0.000000 26.380800 -13.882700 -33.777302 7.824000 7.125000 -0.000000 -0.000000 23.083401 -63.087399 -10.419900
4.248105 8.419684 19.405263 -159.306000 10.130500 -127.518997 0.000000 0.000000 0.000000 34.865501 -1.649200 -90.747299 9.407900 17.063101 57.490299 -0.011600 -8.781600 -5.932500 7.864700 16.018801 52.073799 0.000000 0.000000 0.000000 11.908199 -9.463800 -17.511101 -0.507800 -4.568000 12.680300 -0.608300 1.006400 15.132000 -7.090800 -15.407800 49.216702 -4.588000 2.580400 25.129200 -1.438700 3.751600 9.356700 -0.013000 2.360000 -3.709300 -9.949800 -10.010500 17.764000 2.278000 -13.237500 -26.748501 2.503100 -6.178900 -12.287600 -0.000000 -0.000000 0.000000 56.700199 -34.289101 -54.363098 22.146999 -33.142700 -6.666000 -0.000000 0.000000 -68.437401 36.639702 -8.447500 -6.235300 -7.125000 0.000000 -0.000000 6.951000 19.533701 -4.258000 -0.000000 -0.000000 0.000000 -96.658600 47.148899 -152.807205 -8.552700 14.444800 -1.085800 0.000000 0.000000 20.748600 -12.541800 -47.397400 9.299400 7.125000 -0.000000 -0.000000 47.888699 -73.369301 -34.119701
4.250421 8.443895 18.757264 -154.623993 6.703500 -117.975998 0.000000 0.000000 0.000000 41.660500 1.979700 -94.560898 9.579800 17.166700 58.074402 0.411600 1.808300 -12.913400 3.464800 11.411900 33.682098 0.000000 0.000000 0.000000 16.954899 -16.139601 -23.797600 -0.424200 -4.180000 11.583600 -7.940500 9.101100 56.537102 -0.802800 -5.718600 15.970200 -2.262600 3.171900 20.846901 -1.208900 4.807900 8.407700 -1.102800 2.768400 -2.549700 -9.971800 -9.392400 16.585300 3.952700 -12.307800 -26.556400 2.984400 -5.806700 -11.967600 0.000000 0.000000 0.000000 57.880001 -34.546001 -56.078899 22.637600 -33.690201 -6.936200 -0.000000 0.000000 -68.479897 37.495399 -10.022100 -7.604800 -7.125000 0.000000 -0.000000 7.329100 17.485001 -4.828200 0.000000 0.000000 0.000000 -95.842300 45.507301 -158.498703 -7.598700 12.900300 -0.860300 0.000000 0.000000 26.240801 -16.947399 -34.844799 9.876600 7.125000 -0.000000 -0.000000 20.755600 -64.883400 -10.187600
